<svg width="44" height="48" viewBox="0 0 44 48" fill="none" xmlns="http://www.w3.org/2000/svg">
<g clip-path="url(#clip0_239_1659)">
<path d="M27.6168 20.7833C32.3043 20.7833 36.1042 16.9837 36.1042 12.2968C36.1042 7.60988 32.3043 3.81036 27.6168 3.81036C22.9294 3.81036 19.1295 7.60988 19.1295 12.2968C19.1295 16.9837 22.9294 20.7833 27.6168 20.7833Z" fill="url(#paint0_linear_239_1659)"/>
<path d="M27.6168 24.3167C18.9252 24.3167 11.8779 31.3632 11.8779 40.0539C11.8779 42.3312 13.7266 44.1797 16.0041 44.1797H39.2294C41.507 44.1797 43.3658 42.3312 43.3658 40.0539C43.3658 31.3632 36.3186 24.3167 27.6168 24.3167Z" fill="url(#paint1_linear_239_1659)"/>
</g>
<g filter="url(#filter0_b_239_1659)">
<g clip-path="url(#clip1_239_1659)">
<g filter="url(#filter1_b_239_1659)">
<path d="M20.1275 20.9346C24.5964 19.5199 27.0723 14.7507 25.6577 10.2823C24.2432 5.81396 19.4737 3.3385 15.0049 4.75323C10.536 6.16796 8.06007 10.9371 9.47466 15.4055C10.8892 19.8739 15.6587 22.3494 20.1275 20.9346Z" fill="white" fill-opacity="0.35"/>
<path d="M20.1275 20.9346C24.5964 19.5199 27.0723 14.7507 25.6577 10.2823C24.2432 5.81396 19.4737 3.3385 15.0049 4.75323C10.536 6.16796 8.06007 10.9371 9.47466 15.4055C10.8892 19.8739 15.6587 22.3494 20.1275 20.9346Z" stroke="url(#paint2_linear_239_1659)"/>
<path d="M18.4348 15.5878C19.9504 15.108 20.7901 13.4906 20.3104 11.9752C19.8306 10.4598 18.2131 9.62025 16.6975 10.1C15.182 10.5798 14.3423 12.1973 14.822 13.7127C15.3018 15.2281 16.9193 16.0676 18.4348 15.5878Z" fill="white" fill-opacity="0.35"/>
<path d="M18.4348 15.5878C19.9504 15.108 20.7901 13.4906 20.3104 11.9752C19.8306 10.4598 18.2131 9.62025 16.6975 10.1C15.182 10.5798 14.3423 12.1973 14.822 13.7127C15.3018 15.2281 16.9193 16.0676 18.4348 15.5878Z" stroke="url(#paint3_linear_239_1659)"/>
</g>
<g filter="url(#filter2_b_239_1659)">
<path d="M21.194 24.3033C12.9078 26.9266 8.31588 35.7714 10.9388 44.0568C11.6262 46.228 13.9465 47.4323 16.1179 46.7449L38.26 39.7352C40.4314 39.0478 41.6457 36.7245 40.9584 34.5534C38.3354 26.268 29.4901 21.677 21.194 24.3033Z" fill="white" fill-opacity="0.35"/>
</g>
<line x1="1.13341" y1="-1.13341" x2="11.8672" y2="-1.13341" transform="matrix(0.944497 -0.328519 0.374099 0.927389 18.0568 37.5397)" stroke="url(#paint4_linear_239_1659)" stroke-width="2.26683" stroke-linecap="round"/>
</g>
</g>
<defs>
<filter id="filter0_b_239_1659" x="-7.1405" y="-7.14053" width="56.4876" height="62.281" filterUnits="userSpaceOnUse" color-interpolation-filters="sRGB">
<feFlood flood-opacity="0" result="BackgroundImageFix"/>
<feGaussianBlur in="BackgroundImageFix" stdDeviation="3.57025"/>
<feComposite in2="SourceAlpha" operator="in" result="effect1_backgroundBlur_239_1659"/>
<feBlend mode="normal" in="SourceGraphic" in2="effect1_backgroundBlur_239_1659" result="shape"/>
</filter>
<filter id="filter1_b_239_1659" x="-5.92334" y="-10.6449" width="46.9791" height="46.9776" filterUnits="userSpaceOnUse" color-interpolation-filters="sRGB">
<feFlood flood-opacity="0" result="BackgroundImageFix"/>
<feGaussianBlur in="BackgroundImageFix" stdDeviation="7.5"/>
<feComposite in2="SourceAlpha" operator="in" result="effect1_backgroundBlur_239_1659"/>
<feBlend mode="normal" in="SourceGraphic" in2="effect1_backgroundBlur_239_1659" result="shape"/>
</filter>
<filter id="filter2_b_239_1659" x="-4.79901" y="8.56378" width="60.9497" height="53.3744" filterUnits="userSpaceOnUse" color-interpolation-filters="sRGB">
<feFlood flood-opacity="0" result="BackgroundImageFix"/>
<feGaussianBlur in="BackgroundImageFix" stdDeviation="7.5"/>
<feComposite in2="SourceAlpha" operator="in" result="effect1_backgroundBlur_239_1659"/>
<feBlend mode="normal" in="SourceGraphic" in2="effect1_backgroundBlur_239_1659" result="shape"/>
</filter>
<linearGradient id="paint0_linear_239_1659" x1="28.8665" y1="13.4334" x2="13.9516" y2="20.6861" gradientUnits="userSpaceOnUse">
<stop stop-color="#F74453"/>
<stop offset="1" stop-color="#E02232"/>
</linearGradient>
<linearGradient id="paint1_linear_239_1659" x1="29.94" y1="35.5783" x2="8.48031" y2="52.1191" gradientUnits="userSpaceOnUse">
<stop stop-color="#F74453"/>
<stop offset="1" stop-color="#E02232"/>
</linearGradient>
<linearGradient id="paint2_linear_239_1659" x1="10.0862" y1="8.38445" x2="24.4555" y2="17.9019" gradientUnits="userSpaceOnUse">
<stop stop-color="white" stop-opacity="0.25"/>
<stop offset="1" stop-color="white" stop-opacity="0"/>
</linearGradient>
<linearGradient id="paint3_linear_239_1659" x1="15.0294" y1="11.3315" x2="19.9026" y2="14.5593" gradientUnits="userSpaceOnUse">
<stop stop-color="white" stop-opacity="0.25"/>
<stop offset="1" stop-color="white" stop-opacity="0"/>
</linearGradient>
<linearGradient id="paint4_linear_239_1659" x1="-1.44856" y1="0" x2="14.785" y2="0" gradientUnits="userSpaceOnUse">
<stop stop-color="white" stop-opacity="0.67"/>
<stop offset="1" stop-color="white" stop-opacity="0"/>
</linearGradient>
<clipPath id="clip0_239_1659">
<rect width="31.4879" height="40.3796" fill="white" transform="translate(11.8779 3.8103)"/>
</clipPath>
<clipPath id="clip1_239_1659">
<rect width="31.4879" height="40.3796" fill="white" transform="translate(0 9.50345) rotate(-17.5666)"/>
</clipPath>
</defs>
</svg>
