<svg width="64" height="59" viewBox="0 0 64 59" fill="none" xmlns="http://www.w3.org/2000/svg">
<g filter="url(#filter0_b_154_374)">
<path fill-rule="evenodd" clip-rule="evenodd" d="M15.7175 11.1429C15.2966 11.7006 14.3883 13.5978 13.9508 14.562L14.0063 14.5849L8.64017 27.1079C6.39786 32.3409 8.32865 36.9701 13.5524 39.1152L26.4552 44.4137C31.7283 46.5791 36.3936 44.7364 38.621 39.5383L44.0207 26.9368L44.0212 26.937C44.024 26.93 44.0268 26.923 44.0297 26.9159L44.0664 26.8302L44.0643 26.8293C44.4686 25.8154 45.1698 23.9498 45.2712 23.3051C45.9601 19.5145 44.192 16.1572 40.5206 14.2545L25.6281 8.1258C21.6458 6.85928 18.0049 7.97303 15.7175 11.1429Z" fill="url(#paint0_linear_154_374)"/>
</g>
<g opacity="0.5" filter="url(#filter1_f_154_374)">
<path d="M33.8626 17.0273L25.5114 13.7089C22.4821 12.5052 19.9405 13.7016 18.6077 16.9525L14.0934 27.9628C12.7387 31.267 13.742 33.8224 16.7712 35.0261L25.1225 38.3445C28.2006 39.5676 30.6748 38.3941 32.0296 35.0899L36.5439 24.0796C37.8767 20.8287 36.9407 18.2504 33.8626 17.0273Z" fill="#E9747E"/>
</g>
<g filter="url(#filter2_b_154_374)">
<path d="M43.2222 15.6668H27.1661C21.3151 15.6668 18 18.9781 18 24.8223V40.8445C18 46.6888 21.3151 50 27.1661 50H43.2222C49.0732 50 52.373 46.6888 52.373 40.8445V24.8223C52.373 18.9781 49.0732 15.6668 43.2222 15.6668Z" fill="white" fill-opacity="0.35"/>
</g>
<g filter="url(#filter3_bd_154_374)">
<g filter="url(#filter4_b_154_374)">
<mask id="path-4-inside-1_154_374" fill="white">
<path fill-rule="evenodd" clip-rule="evenodd" d="M30.3407 21.0948C30.3407 21.8826 29.7491 22.4704 28.9603 22.4704C28.1715 22.4704 27.5798 21.8826 27.5798 21.0948V15.6479C27.5798 14.86 28.1715 14.2705 28.9603 14.2705C29.7491 14.2705 30.3407 14.86 30.3407 15.6479V21.0948ZM43.7511 21.0948C43.7511 21.8826 43.1416 22.4704 42.3707 22.4704C41.5819 22.4704 40.9903 21.8826 40.9903 21.0948V15.6479C40.9903 14.86 41.5819 14.2705 42.3707 14.2705C43.1416 14.2705 43.7511 14.86 43.7511 15.6479V21.0948ZM26.8079 35.0297C26.8437 35.8497 27.525 36.4946 28.3497 36.4571C29.1564 36.4231 29.8018 35.7443 29.7659 34.9207C29.748 34.1186 29.0847 33.4915 28.2779 33.4915C27.4533 33.529 26.8079 34.2079 26.8079 35.0297ZM34.1758 35.0297C34.2117 35.8497 34.8929 36.4946 35.7176 36.4571C36.5243 36.4231 37.1697 35.7443 37.1339 34.9207C37.116 34.1186 36.4526 33.4915 35.6459 33.4915C34.8212 33.529 34.1758 34.2079 34.1758 35.0297ZM41.5441 41.5127C41.5441 42.3344 42.2074 43.0133 43.0321 43.0312C43.8747 43.0312 44.5559 42.3523 44.5559 41.5127C44.5559 40.6748 43.8747 39.996 43.0321 39.996H43.0141C42.1895 40.0138 41.5261 40.6909 41.5441 41.5127ZM35.7176 42.942C34.8929 42.9795 34.2117 42.3346 34.1758 41.5128C34.1758 40.691 34.8212 40.014 35.6459 39.9764C36.4526 39.9764 37.116 40.6035 37.1339 41.4074C37.1697 42.2292 36.5243 42.908 35.7176 42.942ZM28.3313 42.942C27.5066 42.9795 26.8254 42.3346 26.7895 41.5128C26.7895 40.691 27.4349 40.014 28.2596 39.9764C29.0664 39.9764 29.7297 40.6035 29.7476 41.4074C29.7835 42.2292 29.1381 42.908 28.3313 42.942ZM43.032 33.5112C42.2073 33.5291 41.5619 34.1901 41.5619 35.0118V35.0297C41.5798 35.8497 42.2611 36.475 43.0858 36.4571C43.8925 36.441 44.5379 35.7622 44.52 34.9404C44.4841 34.1526 43.8387 33.5112 43.032 33.5112ZM22.3483 28.7284C21.5761 28.7284 21 28.1283 21 27.3694C21 26.5929 21.5761 26.0104 22.3483 26.0104L47.3099 26.0104C48.0821 26.0104 48.66 26.5929 48.66 27.3694C48.66 28.1283 48.0821 28.7284 47.3099 28.7284L22.3483 28.7284Z"/>
</mask>
<path fill-rule="evenodd" clip-rule="evenodd" d="M30.3407 21.0948C30.3407 21.8826 29.7491 22.4704 28.9603 22.4704C28.1715 22.4704 27.5798 21.8826 27.5798 21.0948V15.6479C27.5798 14.86 28.1715 14.2705 28.9603 14.2705C29.7491 14.2705 30.3407 14.86 30.3407 15.6479V21.0948ZM43.7511 21.0948C43.7511 21.8826 43.1416 22.4704 42.3707 22.4704C41.5819 22.4704 40.9903 21.8826 40.9903 21.0948V15.6479C40.9903 14.86 41.5819 14.2705 42.3707 14.2705C43.1416 14.2705 43.7511 14.86 43.7511 15.6479V21.0948ZM26.8079 35.0297C26.8437 35.8497 27.525 36.4946 28.3497 36.4571C29.1564 36.4231 29.8018 35.7443 29.7659 34.9207C29.748 34.1186 29.0847 33.4915 28.2779 33.4915C27.4533 33.529 26.8079 34.2079 26.8079 35.0297ZM34.1758 35.0297C34.2117 35.8497 34.8929 36.4946 35.7176 36.4571C36.5243 36.4231 37.1697 35.7443 37.1339 34.9207C37.116 34.1186 36.4526 33.4915 35.6459 33.4915C34.8212 33.529 34.1758 34.2079 34.1758 35.0297ZM41.5441 41.5127C41.5441 42.3344 42.2074 43.0133 43.0321 43.0312C43.8747 43.0312 44.5559 42.3523 44.5559 41.5127C44.5559 40.6748 43.8747 39.996 43.0321 39.996H43.0141C42.1895 40.0138 41.5261 40.6909 41.5441 41.5127ZM35.7176 42.942C34.8929 42.9795 34.2117 42.3346 34.1758 41.5128C34.1758 40.691 34.8212 40.014 35.6459 39.9764C36.4526 39.9764 37.116 40.6035 37.1339 41.4074C37.1697 42.2292 36.5243 42.908 35.7176 42.942ZM28.3313 42.942C27.5066 42.9795 26.8254 42.3346 26.7895 41.5128C26.7895 40.691 27.4349 40.014 28.2596 39.9764C29.0664 39.9764 29.7297 40.6035 29.7476 41.4074C29.7835 42.2292 29.1381 42.908 28.3313 42.942ZM43.032 33.5112C42.2073 33.5291 41.5619 34.1901 41.5619 35.0118V35.0297C41.5798 35.8497 42.2611 36.475 43.0858 36.4571C43.8925 36.441 44.5379 35.7622 44.52 34.9404C44.4841 34.1526 43.8387 33.5112 43.032 33.5112ZM22.3483 28.7284C21.5761 28.7284 21 28.1283 21 27.3694C21 26.5929 21.5761 26.0104 22.3483 26.0104L47.3099 26.0104C48.0821 26.0104 48.66 26.5929 48.66 27.3694C48.66 28.1283 48.0821 28.7284 47.3099 28.7284L22.3483 28.7284Z" fill="url(#paint1_linear_154_374)"/>
<path d="M28.3497 36.4571L28.3328 36.0574L28.3315 36.0575L28.3497 36.4571ZM26.8079 35.0297H26.4079V35.0384L26.4083 35.0471L26.8079 35.0297ZM29.7659 34.9207L29.3659 34.9296L29.3663 34.9381L29.7659 34.9207ZM28.2779 33.4915V33.0915H28.2689L28.2598 33.0919L28.2779 33.4915ZM35.7176 36.4571L35.7008 36.0574L35.6994 36.0575L35.7176 36.4571ZM34.1758 35.0297H33.7758V35.0384L33.7762 35.0471L34.1758 35.0297ZM37.1339 34.9207L36.7339 34.9296L36.7343 34.9381L37.1339 34.9207ZM35.6459 33.4915V33.0915H35.6368L35.6277 33.0919L35.6459 33.4915ZM43.0321 43.0312L43.0234 43.4312H43.0321V43.0312ZM41.5441 41.5127H41.9442L41.944 41.5039L41.5441 41.5127ZM43.0141 39.996V39.5959L43.0055 39.5961L43.0141 39.996ZM34.1758 41.5128H33.7758V41.5215L33.7762 41.5302L34.1758 41.5128ZM35.7176 42.942L35.7008 42.5423L35.6994 42.5424L35.7176 42.942ZM35.6459 39.9764V39.5764H35.6368L35.6277 39.5769L35.6459 39.9764ZM37.1339 41.4074L36.7339 41.4163L36.7343 41.4248L37.1339 41.4074ZM26.7895 41.5128H26.3895V41.5215L26.3899 41.5302L26.7895 41.5128ZM28.3313 42.942L28.3145 42.5423L28.3131 42.5424L28.3313 42.942ZM28.2596 39.9764V39.5764H28.2505L28.2414 39.5769L28.2596 39.9764ZM29.7476 41.4074L29.3476 41.4163L29.348 41.4248L29.7476 41.4074ZM43.032 33.5112V33.1111L43.0233 33.1113L43.032 33.5112ZM41.5619 35.0297H41.1618L41.162 35.0384L41.5619 35.0297ZM43.0858 36.4571L43.0778 36.0572L43.0771 36.0572L43.0858 36.4571ZM44.52 34.9404L44.92 34.9317L44.9196 34.9222L44.52 34.9404ZM22.3483 28.7284V29.1284V28.7284ZM22.3483 26.0104V26.4104V26.0104ZM47.3099 26.0104V25.6104V26.0104ZM47.3099 28.7284V28.3284V28.7284ZM28.9603 22.8704C29.9683 22.8704 30.7407 22.1052 30.7407 21.0948H29.9407C29.9407 21.6601 29.5298 22.0704 28.9603 22.0704V22.8704ZM27.1798 21.0948C27.1798 22.1052 27.9522 22.8704 28.9603 22.8704V22.0704C28.3907 22.0704 27.9798 21.6601 27.9798 21.0948H27.1798ZM27.1798 15.6479V21.0948H27.9798V15.6479H27.1798ZM28.9603 13.8705C27.9515 13.8705 27.1798 14.6381 27.1798 15.6479H27.9798C27.9798 15.0819 28.3914 14.6705 28.9603 14.6705V13.8705ZM30.7407 15.6479C30.7407 14.6381 29.969 13.8705 28.9603 13.8705V14.6705C29.5292 14.6705 29.9407 15.0819 29.9407 15.6479H30.7407ZM30.7407 21.0948V15.6479H29.9407V21.0948H30.7407ZM42.3707 22.8704C43.3574 22.8704 44.1511 22.1086 44.1511 21.0948H43.3511C43.3511 21.6567 42.9258 22.0704 42.3707 22.0704V22.8704ZM40.5903 21.0948C40.5903 22.1052 41.3626 22.8704 42.3707 22.8704V22.0704C41.8011 22.0704 41.3903 21.6601 41.3903 21.0948H40.5903ZM40.5903 15.6479V21.0948H41.3903V15.6479H40.5903ZM42.3707 13.8705C41.3619 13.8705 40.5903 14.6381 40.5903 15.6479H41.3903C41.3903 15.0819 41.8018 14.6705 42.3707 14.6705V13.8705ZM44.1511 15.6479C44.1511 14.6347 43.3581 13.8705 42.3707 13.8705V14.6705C42.9251 14.6705 43.3511 15.0853 43.3511 15.6479H44.1511ZM44.1511 21.0948V15.6479H43.3511V21.0948H44.1511ZM28.3315 36.0575C27.7349 36.0846 27.234 35.6184 27.2075 35.0122L26.4083 35.0471C26.4535 36.0809 27.3151 36.9045 28.3678 36.8566L28.3315 36.0575ZM29.3663 34.9381C29.3923 35.5355 28.9239 36.0325 28.3328 36.0574L28.3665 36.8567C29.3889 36.8137 30.2113 35.953 30.1656 34.9033L29.3663 34.9381ZM28.2779 33.8915C28.8758 33.8915 29.3532 34.3533 29.366 34.9296L30.1658 34.9118C30.1429 33.8838 29.2935 33.0915 28.2779 33.0915V33.8915ZM27.2079 35.0297C27.2079 34.4212 27.6856 33.9189 28.2961 33.8911L28.2598 33.0919C27.221 33.1392 26.4079 33.9946 26.4079 35.0297H27.2079ZM35.6994 36.0575C35.1028 36.0846 34.6019 35.6184 34.5754 35.0122L33.7762 35.0471C33.8214 36.0809 34.683 36.9045 35.7358 36.8566L35.6994 36.0575ZM36.7343 34.9381C36.7603 35.5355 36.2918 36.0325 35.7008 36.0574L35.7344 36.8567C36.7569 36.8137 37.5792 35.953 37.5335 34.9033L36.7343 34.9381ZM35.6459 33.8915C36.2438 33.8915 36.7211 34.3534 36.734 34.9296L37.5338 34.9118C37.5108 33.8838 36.6615 33.0915 35.6459 33.0915V33.8915ZM34.5758 35.0297C34.5758 34.4212 35.0535 33.9189 35.6641 33.8911L35.6277 33.0919C34.5889 33.1392 33.7758 33.9946 33.7758 35.0297H34.5758ZM43.0407 42.6313C42.4334 42.6181 41.9441 42.1167 41.9441 41.5127H41.1441C41.1441 42.5522 41.9814 43.4085 43.0234 43.4311L43.0407 42.6313ZM44.1559 41.5127C44.1559 42.1301 43.6551 42.6312 43.0321 42.6312V43.4312C44.0942 43.4312 44.9559 42.5746 44.9559 41.5127H44.1559ZM43.0321 40.396C43.6554 40.396 44.1559 40.8974 44.1559 41.5127H44.9559C44.9559 40.4523 44.0939 39.596 43.0321 39.596V40.396ZM43.0141 40.396H43.0321V39.596H43.0141V40.396ZM41.944 41.5039C41.931 40.9089 42.4131 40.4091 43.0228 40.3959L43.0055 39.5961C41.9658 39.6186 41.1213 40.4729 41.1442 41.5214L41.944 41.5039ZM33.7762 41.5302C33.8214 42.5655 34.6827 43.3895 35.7358 43.3416L35.6994 42.5424C35.1031 42.5695 34.602 42.1036 34.5754 41.4954L33.7762 41.5302ZM35.6277 39.5769C34.5895 39.6241 33.7758 40.4771 33.7758 41.5128H34.5758C34.5758 40.905 35.0529 40.4038 35.6641 40.376L35.6277 39.5769ZM37.5338 41.3985C37.5108 40.369 36.6618 39.5764 35.6459 39.5764V40.3764C36.2435 40.3764 36.7211 40.838 36.734 41.4163L37.5338 41.3985ZM35.7344 43.3416C36.7566 43.2986 37.5792 42.4382 37.5335 41.39L36.7343 41.4248C36.7602 42.0202 36.2921 42.5175 35.7008 42.5423L35.7344 43.3416ZM26.3899 41.5302C26.4351 42.5655 27.2964 43.3895 28.3495 43.3416L28.3131 42.5424C27.7169 42.5695 27.2157 42.1036 27.1892 41.4954L26.3899 41.5302ZM28.2414 39.5769C27.2032 39.6241 26.3895 40.4771 26.3895 41.5128H27.1895C27.1895 40.905 27.6667 40.4038 28.2778 40.376L28.2414 39.5769ZM30.1475 41.3985C30.1245 40.369 29.2755 39.5764 28.2596 39.5764V40.3764C28.8572 40.3764 29.3348 40.838 29.3477 41.4163L30.1475 41.3985ZM28.3481 43.3416C29.3703 43.2986 30.193 42.4382 30.1472 41.39L29.348 41.4248C29.374 42.0202 28.9058 42.5175 28.3145 42.5423L28.3481 43.3416ZM41.9619 35.0118C41.9619 34.4076 42.4334 33.9243 43.0406 33.9111L43.0233 33.1113C41.9812 33.1339 41.1619 33.9725 41.1619 35.0118H41.9619ZM41.9619 35.0297V35.0118H41.1619V35.0297H41.9619ZM43.0771 36.0572C42.4626 36.0705 41.9747 35.6096 41.9618 35.021L41.162 35.0384C41.185 36.0898 42.0596 36.8794 43.0944 36.857L43.0771 36.0572ZM44.1201 34.9491C44.1333 35.5545 43.6587 36.0456 43.0778 36.0572L43.0937 36.857C44.1263 36.8364 44.9425 35.9699 44.9199 34.9317L44.1201 34.9491ZM43.032 33.9112C43.6192 33.9112 44.094 34.3786 44.1204 34.9586L44.9196 34.9222C44.8742 33.9265 44.0583 33.1112 43.032 33.1112V33.9112ZM20.6 27.3694C20.6 28.3425 21.3485 29.1284 22.3483 29.1284V28.3284C21.8037 28.3284 21.4 27.9141 21.4 27.3694H20.6ZM22.3483 25.6104C21.3519 25.6104 20.6 26.3753 20.6 27.3694H21.4C21.4 26.8105 21.8003 26.4104 22.3483 26.4104V25.6104ZM47.3099 25.6104L22.3483 25.6104V26.4104L47.3099 26.4104V25.6104ZM49.06 27.3694C49.06 26.3746 48.3057 25.6104 47.3099 25.6104V26.4104C47.8586 26.4104 48.26 26.8111 48.26 27.3694H49.06ZM47.3099 29.1284C48.3091 29.1284 49.06 28.3432 49.06 27.3694H48.26C48.26 27.9135 47.8552 28.3284 47.3099 28.3284V29.1284ZM22.3483 29.1284L47.3099 29.1284V28.3284L22.3483 28.3284V29.1284Z" fill="url(#paint2_linear_154_374)" mask="url(#path-4-inside-1_154_374)"/>
</g>
</g>
<defs>
<filter id="filter0_b_154_374" x="-5.2813" y="-5.38593" width="63.6989" height="63.6904" filterUnits="userSpaceOnUse" color-interpolation-filters="sRGB">
<feFlood flood-opacity="0" result="BackgroundImageFix"/>
<feGaussianBlur in="BackgroundImageFix" stdDeviation="6.5"/>
<feComposite in2="SourceAlpha" operator="in" result="effect1_backgroundBlur_154_374"/>
<feBlend mode="normal" in="SourceGraphic" in2="effect1_backgroundBlur_154_374" result="shape"/>
</filter>
<filter id="filter1_f_154_374" x="0.50153" y="0.250549" width="49.6328" height="51.5667" filterUnits="userSpaceOnUse" color-interpolation-filters="sRGB">
<feFlood flood-opacity="0" result="BackgroundImageFix"/>
<feBlend mode="normal" in="SourceGraphic" in2="BackgroundImageFix" result="shape"/>
<feGaussianBlur stdDeviation="6.5" result="effect1_foregroundBlur_154_374"/>
</filter>
<filter id="filter2_b_154_374" x="3" y="0.666809" width="64.373" height="64.3332" filterUnits="userSpaceOnUse" color-interpolation-filters="sRGB">
<feFlood flood-opacity="0" result="BackgroundImageFix"/>
<feGaussianBlur in="BackgroundImageFix" stdDeviation="7.5"/>
<feComposite in2="SourceAlpha" operator="in" result="effect1_backgroundBlur_154_374"/>
<feBlend mode="normal" in="SourceGraphic" in2="effect1_backgroundBlur_154_374" result="shape"/>
</filter>
<filter id="filter3_bd_154_374" x="6" y="-0.729492" width="57.66" height="58.7607" filterUnits="userSpaceOnUse" color-interpolation-filters="sRGB">
<feFlood flood-opacity="0" result="BackgroundImageFix"/>
<feGaussianBlur in="BackgroundImageFix" stdDeviation="7.5"/>
<feComposite in2="SourceAlpha" operator="in" result="effect1_backgroundBlur_154_374"/>
<feColorMatrix in="SourceAlpha" type="matrix" values="0 0 0 0 0 0 0 0 0 0 0 0 0 0 0 0 0 0 127 0" result="hardAlpha"/>
<feOffset dx="5" dy="5"/>
<feGaussianBlur stdDeviation="5"/>
<feColorMatrix type="matrix" values="0 0 0 0 1 0 0 0 0 0.447059 0 0 0 0 0.368627 0 0 0 0.5 0"/>
<feBlend mode="normal" in2="effect1_backgroundBlur_154_374" result="effect2_dropShadow_154_374"/>
<feBlend mode="normal" in="SourceGraphic" in2="effect2_dropShadow_154_374" result="shape"/>
</filter>
<filter id="filter4_b_154_374" x="6" y="-0.729492" width="57.66" height="58.7607" filterUnits="userSpaceOnUse" color-interpolation-filters="sRGB">
<feFlood flood-opacity="0" result="BackgroundImageFix"/>
<feGaussianBlur in="BackgroundImageFix" stdDeviation="7.5"/>
<feComposite in2="SourceAlpha" operator="in" result="effect1_backgroundBlur_154_374"/>
<feBlend mode="normal" in="SourceGraphic" in2="effect1_backgroundBlur_154_374" result="shape"/>
</filter>
<linearGradient id="paint0_linear_154_374" x1="27.8828" y1="29.4449" x2="-4.13308" y2="30.8165" gradientUnits="userSpaceOnUse">
<stop stop-color="#F74453"/>
<stop offset="1" stop-color="#E02232"/>
</linearGradient>
<linearGradient id="paint1_linear_154_374" x1="13.5802" y1="35.6173" x2="25.4565" y2="61.9128" gradientUnits="userSpaceOnUse">
<stop stop-color="white"/>
<stop offset="1" stop-color="white" stop-opacity="0.2"/>
</linearGradient>
<linearGradient id="paint2_linear_154_374" x1="25.403" y1="17.6212" x2="43.8872" y2="39.6382" gradientUnits="userSpaceOnUse">
<stop stop-color="white" stop-opacity="0.25"/>
<stop offset="1" stop-color="white" stop-opacity="0"/>
</linearGradient>
</defs>
</svg>
