<svg width="78" height="42" viewBox="0 0 78 42" fill="none" xmlns="http://www.w3.org/2000/svg">
<path fill-rule="evenodd" clip-rule="evenodd" d="M14.2287 8.49575C15.3013 7.81769 16.6549 7.47865 18.2894 7.47865C19.9238 7.47865 21.2518 7.89746 22.2734 8.73507C23.346 9.53279 23.9845 10.6895 24.1888 12.2052H38.4394C38.2861 7.7778 36.4218 4.54703 32.8464 2.51284C30.8389 1.34829 28.4771 0.510679 25.7611 0L43.2748 1.04822e-07V15.1026H64.2371V1.04822e-07H77.3384V42H64.2371V25.0171H43.2748V42H24.7338C28.2524 41.4416 31.2375 40.3248 33.6892 38.6496C37.4178 36.0969 39.2821 33.0456 39.2821 29.4958C39.2821 27.4616 38.7969 25.7265 37.8264 24.2906C36.856 22.8148 35.579 21.6781 33.9956 20.8804C32.4633 20.0826 30.7522 19.4245 28.8624 18.906C26.9725 18.3476 25.0571 17.8889 23.1162 17.5299C21.2263 17.1311 19.4897 16.7322 17.9063 16.3334C16.374 15.8946 15.1226 15.2963 14.1521 14.5385C13.1816 13.7408 12.6964 12.7037 12.6964 11.4274C12.6964 10.151 13.2072 9.17381 14.2287 8.49575ZM0 29.3163H12.8496C13.2072 32.6667 15.4035 34.3419 19.4386 34.3419C21.3285 34.3419 22.8097 33.963 23.8823 33.2052C24.9549 32.4074 25.4913 31.4103 25.4913 30.2137C25.4913 29.0171 25.006 28.0399 24.0356 27.2821C23.0651 26.5242 21.7882 25.926 20.2048 25.4872C18.6724 25.0485 16.9358 24.6496 14.9949 24.2906C13.105 23.8918 11.2151 23.4131 9.32528 22.8547C7.43542 22.2963 5.69879 21.6382 4.11539 20.8804C2.58307 20.0826 1.33168 18.9658 0.36121 17.5299C0.232236 17.3338 0.111833 17.1331 6.29523e-08 16.9278L0 29.3163Z" fill="#D72130"/>
</svg>
