<svg width="18" height="14" viewBox="0 0 18 14" fill="none" xmlns="http://www.w3.org/2000/svg">
<path fill-rule="evenodd" clip-rule="evenodd" d="M11.5303 13.5303C11.2374 13.8232 10.7626 13.8232 10.4697 13.5303C10.1768 13.2374 10.1768 12.7626 10.4697 12.4697L15.1893 7.75L0.999999 7.75C0.585786 7.75 0.249999 7.41421 0.249999 7C0.249999 6.58579 0.585786 6.25 0.999999 6.25L15.1893 6.25L10.4697 1.53033C10.1768 1.23744 10.1768 0.762562 10.4697 0.469669C10.7626 0.176776 11.2374 0.176776 11.5303 0.469669L17.5303 6.46967C17.6768 6.61612 17.75 6.80806 17.75 7C17.75 7.10169 17.7298 7.19866 17.6931 7.28709C17.6565 7.37555 17.6022 7.45842 17.5303 7.53033L11.5303 13.5303Z" fill="white"/>
</svg>
